<?xml version="1.0" encoding="utf-8"?>
<!-- Generator: Adobe Illustrator 14.0.0, SVG Export Plug-In . SVG Version: 6.00 Build 43363)  -->
<!DOCTYPE svg PUBLIC "-//W3C//DTD SVG 1.1//EN" "http://www.w3.org/Graphics/SVG/1.1/DTD/svg11.dtd">
<svg version="1.1" id="Layer_1" xmlns="http://www.w3.org/2000/svg" xmlns:xlink="http://www.w3.org/1999/xlink" x="0px" y="0px"
	 width="255.119px" height="234.751px" viewBox="0 0 255.119 234.751" enable-background="new 0 0 255.119 234.751"
	 xml:space="preserve">
<rect x="0.364" y="0" fill="#FFFFFF" width="254.756" height="234.75"/>
<polygon fill="#ED1C24" points="129.152,72.135 137.353,72.135 133.384,59.568 "/>
<polygon fill="#ED1C24" points="113.701,176.766 121.903,176.766 117.934,164.2 "/>
<g>
	<defs>
		<rect id="SVGID_1_" y="0" width="255.119" height="234.751"/>
	</defs>
	<clipPath id="SVGID_2_">
		<use xlink:href="#SVGID_1_"  overflow="visible"/>
	</clipPath>
	<path clip-path="url(#SVGID_2_)" fill="#ED1C24" d="M61.39,104.334h-6.548v9.524h6.548c3.175,0,5.027-2.315,5.027-4.762
		C66.417,106.649,64.565,104.334,61.39,104.334"/>
	<path clip-path="url(#SVGID_2_)" fill="#ED1C24" d="M34.763,201.651h129.742V33.231H34.763V201.651z M61.998,41.709h11.377
		l10.583,20.769l10.583-20.769h11.376v47.094H94.343V66.249L87.662,77.89h-7.408l-6.681-11.641v22.555H61.998V41.709z
		 M99.35,131.122c3.836,0,6.35-2.513,6.35-6.879V93.95h11.575v30.558c0,10.318-8.135,16.934-17.925,16.934
		c-9.789,0-17.792-6.615-17.792-16.934V93.95h11.575v30.293C93.133,128.609,95.515,131.122,99.35,131.122 M43.267,41.312h10.848
		v8.268H43.267V41.312z M43.267,54.607h10.848v34.196H43.267V54.607z M59.787,193.831c-7.21,0-13.097-1.322-17.858-6.216
		l7.408-7.409c2.447,2.448,6.746,3.307,10.516,3.307c4.564,0,6.747-1.521,6.747-4.232c0-1.124-0.265-2.05-0.926-2.778
		c-0.595-0.595-1.587-1.058-3.109-1.257l-5.688-0.794c-4.167-0.594-7.342-1.984-9.459-4.167c-2.183-2.249-3.24-5.423-3.24-9.458
		c0-8.598,6.481-14.882,17.197-14.882c6.746,0,11.839,1.588,15.874,5.622l-7.275,7.275c-2.977-2.976-6.879-2.777-8.93-2.777
		c-4.035,0-5.689,2.314-5.689,4.364c0,0.597,0.199,1.455,0.926,2.184c0.596,0.595,1.588,1.19,3.241,1.389l5.689,0.793
		c4.233,0.596,7.275,1.919,9.26,3.904c2.513,2.447,3.505,5.952,3.505,10.317C77.976,188.606,69.708,193.831,59.787,193.831
		 M67.079,141.042l-8.334-17.527h-3.902v17.527H43.267V93.95h18.653c10.45,0,16.073,7.408,16.073,15.146
		c0,6.416-3.969,10.451-7.673,12.303l10.186,19.644H67.079z M93.116,193.434H81.542V146.34h11.574V193.434z M127.128,193.434
		l-2.184-7.012h-14.485l-2.315,7.012H96.041l17.131-47.094h8.929l17.131,47.094H127.128z M154.683,193.218h-10.848v-6.676h10.848
		V193.218z M154.683,180.536h-10.848V146.34h10.848V180.536z M136.493,141.441c-7.21,0-13.097-1.324-17.858-6.219l7.408-7.407
		c2.447,2.446,6.748,3.307,10.516,3.307c4.565,0,6.748-1.521,6.748-4.233c0-1.124-0.265-2.051-0.926-2.777
		c-0.597-0.596-1.588-1.059-3.11-1.257l-5.688-0.793c-4.167-0.597-7.342-1.985-9.458-4.169c-2.183-2.248-3.241-5.422-3.241-9.458
		c0-8.598,6.482-14.882,17.197-14.882c6.746,0,11.84,1.587,15.873,5.622l-7.274,7.275c-2.978-2.976-6.879-2.777-8.929-2.777
		c-4.035,0-5.689,2.315-5.689,4.365c0,0.596,0.199,1.455,0.926,2.183c0.596,0.595,1.587,1.19,3.241,1.389l5.688,0.794
		c4.232,0.595,7.275,1.918,9.261,3.902c2.512,2.447,3.505,5.953,3.505,10.318C154.683,136.214,146.415,141.441,136.493,141.441
		 M142.578,88.804l-2.183-7.011h-14.485l-2.315,7.011h-12.104l17.131-47.094h8.929l17.131,47.094H142.578z"/>
	<path clip-path="url(#SVGID_2_)" fill="#ED1C24" d="M196.438,184.675c-0.588,0-1.133,0.237-1.481,0.614
		c-0.49,0.532-0.587,1.091-0.587,3.089s0.097,2.559,0.587,3.089c0.349,0.377,0.894,0.614,1.481,0.614
		c0.587,0,1.132-0.237,1.48-0.614c0.49-0.53,0.587-1.091,0.587-3.089s-0.097-2.557-0.587-3.089
		C197.57,184.913,197.025,184.675,196.438,184.675"/>
	<path clip-path="url(#SVGID_2_)" fill="#ED1C24" d="M216.044,184.759h-2.182v3.312h2.182c1.048,0,1.761-0.602,1.761-1.649
		C217.805,185.374,217.092,184.759,216.044,184.759"/>
	<path clip-path="url(#SVGID_2_)" fill="#ED1C24" d="M189.11,186.324c0-0.978-0.686-1.563-1.69-1.563h-2.237v3.116h2.237
		C188.425,187.876,189.11,187.303,189.11,186.324"/>
	<path clip-path="url(#SVGID_2_)" fill="#ED1C24" d="M171.876,201.65h49.207V33.231h-49.207V201.65z M181.004,189.498
		c0,1.286-0.237,2.109-0.896,2.808c-0.754,0.797-1.689,1.133-2.739,1.133c-1.033,0-1.929-0.378-2.612-1.062
		c-0.979-0.979-0.964-2.082-0.964-3.997c0-1.916-0.016-3.02,0.964-3.998c0.684-0.684,1.552-1.062,2.612-1.062
		c2.111,0,3.342,1.384,3.62,3.089h-1.522c-0.252-1.091-0.979-1.733-2.098-1.733c-0.587,0-1.117,0.238-1.467,0.615
		c-0.489,0.53-0.601,1.09-0.601,3.089c0,1.998,0.111,2.571,0.601,3.102c0.35,0.377,0.88,0.602,1.467,0.602
		c0.657,0,1.231-0.251,1.621-0.699c0.364-0.419,0.504-0.922,0.504-1.565v-0.559h-2.125v-1.286h3.635V189.498z M189.165,193.354
		l-2.096-4.192h-1.886v4.192h-1.51v-9.951h3.856c1.888,0,3.089,1.217,3.089,2.907c0,1.426-0.866,2.334-1.983,2.643l2.292,4.401
		H189.165z M199.065,192.376c-0.685,0.684-1.564,1.062-2.627,1.062c-1.062,0-1.929-0.378-2.614-1.062
		c-0.978-0.979-0.964-2.082-0.964-3.997c0-1.916-0.014-3.02,0.964-3.998c0.686-0.684,1.553-1.062,2.614-1.062
		c1.062,0,1.942,0.378,2.627,1.062c0.979,0.979,0.951,2.082,0.951,3.998C200.017,190.294,200.044,191.397,199.065,192.376
		 M209.569,190c0,2.054-1.551,3.438-3.578,3.438c-0.393,0-0.768-0.054-1.118-0.151c-1.446-0.412-2.444-1.632-2.444-3.286v-6.598
		h1.51v6.527c0,0.869,0.346,1.523,0.935,1.87c0.312,0.184,0.689,0.282,1.118,0.282c1.244,0,2.069-0.825,2.069-2.152v-6.527h1.509
		V190z M216.128,189.441h-2.266v3.913h-1.508v-9.951h3.773c1.941,0,3.187,1.286,3.187,3.02
		C219.314,188.155,218.069,189.441,216.128,189.441"/>
</g>
</svg>
